<svg width="100" height="100" viewBox="0 0 100 100" fill="none" xmlns="http://www.w3.org/2000/svg">
<rect width="100" height="100" fill="url(#paint0_linear_9704_4795)"/>
<path d="M49.664 74.704C46.3787 74.704 43.3067 74.1067 40.448 72.912C37.632 71.7173 35.1573 70.0747 33.024 67.984C30.9333 65.8507 29.2907 63.376 28.096 60.56C26.9013 57.7013 26.304 54.6507 26.304 51.408C26.304 48.1653 26.88 45.1573 28.032 42.384C29.2267 39.568 30.8693 37.1147 32.96 35.024C35.0933 32.8907 37.568 31.248 40.384 30.096C43.2 28.9013 46.2507 28.304 49.536 28.304C52.864 28.304 55.936 28.9013 58.752 30.096C61.568 31.248 64.0213 32.8907 66.112 35.024C68.2453 37.1147 69.9093 39.568 71.104 42.384C72.2987 45.2 72.896 48.2293 72.896 51.472C72.896 54.7147 72.2987 57.744 71.104 60.56C69.9093 63.376 68.2453 65.8507 66.112 67.984C64.0213 70.0747 61.568 71.7173 58.752 72.912C55.9787 74.1067 52.9493 74.704 49.664 74.704ZM49.536 66.576C52.4373 66.576 54.9547 65.936 57.088 64.656C59.2213 63.376 60.8853 61.6053 62.08 59.344C63.3173 57.0827 63.936 54.4373 63.936 51.408C63.936 49.1893 63.5947 47.1627 62.912 45.328C62.2293 43.4933 61.248 41.9147 59.968 40.592C58.688 39.2267 57.1733 38.1813 55.424 37.456C53.6747 36.7307 51.712 36.368 49.536 36.368C46.72 36.368 44.224 37.008 42.048 38.288C39.9147 39.5253 38.2293 41.2747 36.992 43.536C35.7973 45.7973 35.2 48.4213 35.2 51.408C35.2 53.6693 35.5413 55.7387 36.224 57.616C36.9493 59.4933 37.9307 61.0933 39.168 62.416C40.448 63.7387 41.9627 64.7627 43.712 65.488C45.504 66.2133 47.4453 66.576 49.536 66.576Z" fill="white"/>
<defs>
<linearGradient id="paint0_linear_9704_4795" x1="0" y1="0" x2="100" y2="100" gradientUnits="userSpaceOnUse">
<stop stop-color="#007349"/>
<stop offset="0.461538" stop-color="#003A1A"/>
<stop offset="1" stop-color="#007349"/>
</linearGradient>
</defs>
</svg>
