<svg width="100" height="100" viewBox="0 0 100 100" fill="none" xmlns="http://www.w3.org/2000/svg">
<rect width="100" height="100" fill="url(#paint0_linear_9704_4784)"/>
<path d="M47.568 74.64C44.8373 74.64 42.4267 74.128 40.336 73.104C38.288 72.0373 36.5813 70.608 35.216 68.816L41.104 63.184C41.872 64.2933 42.7893 65.1467 43.856 65.744C44.9653 66.2987 46.1813 66.576 47.504 66.576C48.8267 66.576 49.9787 66.2987 50.96 65.744C51.984 65.1893 52.752 64.3787 53.264 63.312C53.8187 62.2453 54.096 60.944 54.096 59.408V29.008H62.864V58.896C62.864 62.0533 62.224 64.8267 60.944 67.216C59.7067 69.5627 57.936 71.3973 55.632 72.72C53.3707 74 50.6827 74.64 47.568 74.64Z" fill="white"/>
<defs>
<linearGradient id="paint0_linear_9704_4784" x1="0" y1="0" x2="100" y2="100" gradientUnits="userSpaceOnUse">
<stop stop-color="#990008"/>
<stop offset="0.461538" stop-color="#420001"/>
<stop offset="1" stop-color="#990008"/>
</linearGradient>
</defs>
</svg>
